<svg xmlns="http://www.w3.org/2000/svg" viewBox="0 0 1600 900" width="1600" height="900" role="img" aria-label="Skyline em traco tecnico">
<defs>
<linearGradient id="sky" x1="0" y1="0" x2="0.3" y2="1">
<stop offset="0" stop-color="#0A1720"/><stop offset="1" stop-color="#123244"/>
</linearGradient>
<linearGradient id="glow" x1="0" y1="1" x2="0" y2="0">
<stop offset="0" stop-color="#3FB0C9" stop-opacity="0.28"/><stop offset="1" stop-color="#3FB0C9" stop-opacity="0"/>
</linearGradient>
</defs>
<rect width="1600" height="900" fill="url(#sky)"/>
<rect width="1600" height="900" fill="url(#glow)"/>
<g fill="#123244" fill-opacity="0.55"><rect x="-40" y="586" width="123" height="324"/><rect x="90" y="640" width="71" height="270"/><rect x="114" y="627" width="22" height="13"/><rect x="170" y="722" width="134" height="188"/><rect x="311" y="636" width="146" height="274"/><rect x="464" y="712" width="143" height="198"/><rect x="617" y="607" width="88" height="303"/><rect x="652" y="578" width="19" height="29"/><rect x="718" y="676" width="103" height="234"/><rect x="840" y="714" width="68" height="196"/><rect x="868" y="702" width="13" height="12"/><rect x="914" y="727" width="96" height="183"/><rect x="954" y="699" width="16" height="28"/><rect x="1026" y="647" width="79" height="263"/><rect x="1111" y="630" width="123" height="280"/><rect x="1255" y="593" width="78" height="317"/><rect x="1345" y="641" width="150" height="269"/><rect x="1515" y="652" width="60" height="258"/><rect x="1579" y="602" width="113" height="308"/><rect x="1623" y="592" width="24" height="10"/></g>
<g fill="#000000" fill-opacity="0.35"><rect x="-40" y="604" width="139" height="306"/><rect x="20" y="585" width="18" height="19"/><rect x="116" y="646" width="178" height="264"/><rect x="309" y="541" width="109" height="369"/><rect x="430" y="645" width="138" height="265"/><rect x="585" y="534" width="115" height="376"/><rect x="710" y="465" width="155" height="445"/><rect x="775" y="435" width="24" height="30"/><rect x="874" y="617" width="103" height="293"/><rect x="916" y="592" width="19" height="25"/><rect x="989" y="631" width="180" height="279"/><rect x="1186" y="489" width="170" height="421"/><rect x="1377" y="646" width="169" height="264"/><rect x="1557" y="535" width="75" height="375"/></g>
<g fill="#000000" fill-opacity="0.55"><rect x="-40" y="318" width="122" height="592"/><rect x="16" y="289" width="10" height="29"/><rect x="88" y="471" width="160" height="439"/><rect x="155" y="442" width="26" height="29"/><rect x="258" y="386" width="117" height="524"/><rect x="391" y="492" width="185" height="418"/><rect x="472" y="472" width="22" height="20"/><rect x="585" y="441" width="191" height="469"/><rect x="785" y="520" width="118" height="390"/><rect x="922" y="563" width="168" height="347"/><rect x="993" y="537" width="26" height="26"/><rect x="1112" y="417" width="179" height="493"/><rect x="1301" y="376" width="200" height="534"/><rect x="1394" y="364" width="14" height="12"/><rect x="1523" y="563" width="97" height="347"/><rect x="1636" y="306" width="149" height="604"/></g>
<g fill="none" stroke="#3FB0C9" stroke-width="1" stroke-opacity="0.22"><rect x="-40" y="318" width="122" height="592"/><rect x="16" y="289" width="10" height="29"/><line x1="-10" y1="318" x2="-10" y2="910"/><line x1="21" y1="318" x2="21" y2="910"/><line x1="52" y1="318" x2="52" y2="910"/><line x1="-40" y1="353" x2="82" y2="353"/><line x1="-40" y1="388" x2="82" y2="388"/><line x1="-40" y1="422" x2="82" y2="422"/><line x1="-40" y1="457" x2="82" y2="457"/><line x1="-40" y1="492" x2="82" y2="492"/><line x1="-40" y1="527" x2="82" y2="527"/><line x1="-40" y1="562" x2="82" y2="562"/><line x1="-40" y1="597" x2="82" y2="597"/><line x1="-40" y1="631" x2="82" y2="631"/><line x1="-40" y1="666" x2="82" y2="666"/><line x1="-40" y1="701" x2="82" y2="701"/><line x1="-40" y1="736" x2="82" y2="736"/><line x1="-40" y1="771" x2="82" y2="771"/><line x1="-40" y1="806" x2="82" y2="806"/><line x1="-40" y1="840" x2="82" y2="840"/><line x1="-40" y1="875" x2="82" y2="875"/><rect x="88" y="471" width="160" height="439"/><rect x="155" y="442" width="26" height="29"/><line x1="115" y1="471" x2="115" y2="910"/><line x1="141" y1="471" x2="141" y2="910"/><line x1="168" y1="471" x2="168" y2="910"/><line x1="195" y1="471" x2="195" y2="910"/><line x1="221" y1="471" x2="221" y2="910"/><line x1="88" y1="508" x2="248" y2="508"/><line x1="88" y1="544" x2="248" y2="544"/><line x1="88" y1="581" x2="248" y2="581"/><line x1="88" y1="617" x2="248" y2="617"/><line x1="88" y1="654" x2="248" y2="654"/><line x1="88" y1="690" x2="248" y2="690"/><line x1="88" y1="727" x2="248" y2="727"/><line x1="88" y1="764" x2="248" y2="764"/><line x1="88" y1="800" x2="248" y2="800"/><line x1="88" y1="837" x2="248" y2="837"/><line x1="88" y1="873" x2="248" y2="873"/><rect x="258" y="386" width="117" height="524"/><line x1="287" y1="386" x2="287" y2="910"/><line x1="316" y1="386" x2="316" y2="910"/><line x1="346" y1="386" x2="346" y2="910"/><line x1="258" y1="421" x2="375" y2="421"/><line x1="258" y1="456" x2="375" y2="456"/><line x1="258" y1="491" x2="375" y2="491"/><line x1="258" y1="526" x2="375" y2="526"/><line x1="258" y1="561" x2="375" y2="561"/><line x1="258" y1="596" x2="375" y2="596"/><line x1="258" y1="631" x2="375" y2="631"/><line x1="258" y1="665" x2="375" y2="665"/><line x1="258" y1="700" x2="375" y2="700"/><line x1="258" y1="735" x2="375" y2="735"/><line x1="258" y1="770" x2="375" y2="770"/><line x1="258" y1="805" x2="375" y2="805"/><line x1="258" y1="840" x2="375" y2="840"/><line x1="258" y1="875" x2="375" y2="875"/><rect x="391" y="492" width="185" height="418"/><rect x="472" y="472" width="22" height="20"/><line x1="417" y1="492" x2="417" y2="910"/><line x1="444" y1="492" x2="444" y2="910"/><line x1="470" y1="492" x2="470" y2="910"/><line x1="497" y1="492" x2="497" y2="910"/><line x1="523" y1="492" x2="523" y2="910"/><line x1="550" y1="492" x2="550" y2="910"/><line x1="391" y1="527" x2="576" y2="527"/><line x1="391" y1="562" x2="576" y2="562"/><line x1="391" y1="596" x2="576" y2="596"/><line x1="391" y1="631" x2="576" y2="631"/><line x1="391" y1="666" x2="576" y2="666"/><line x1="391" y1="701" x2="576" y2="701"/><line x1="391" y1="736" x2="576" y2="736"/><line x1="391" y1="771" x2="576" y2="771"/><line x1="391" y1="806" x2="576" y2="806"/><line x1="391" y1="840" x2="576" y2="840"/><line x1="391" y1="875" x2="576" y2="875"/><rect x="585" y="441" width="191" height="469"/><line x1="612" y1="441" x2="612" y2="910"/><line x1="640" y1="441" x2="640" y2="910"/><line x1="667" y1="441" x2="667" y2="910"/><line x1="694" y1="441" x2="694" y2="910"/><line x1="721" y1="441" x2="721" y2="910"/><line x1="749" y1="441" x2="749" y2="910"/><line x1="585" y1="477" x2="776" y2="477"/><line x1="585" y1="513" x2="776" y2="513"/><line x1="585" y1="549" x2="776" y2="549"/><line x1="585" y1="585" x2="776" y2="585"/><line x1="585" y1="621" x2="776" y2="621"/><line x1="585" y1="657" x2="776" y2="657"/><line x1="585" y1="694" x2="776" y2="694"/><line x1="585" y1="730" x2="776" y2="730"/><line x1="585" y1="766" x2="776" y2="766"/><line x1="585" y1="802" x2="776" y2="802"/><line x1="585" y1="838" x2="776" y2="838"/><line x1="585" y1="874" x2="776" y2="874"/><rect x="785" y="520" width="118" height="390"/><line x1="814" y1="520" x2="814" y2="910"/><line x1="844" y1="520" x2="844" y2="910"/><line x1="874" y1="520" x2="874" y2="910"/><line x1="785" y1="555" x2="903" y2="555"/><line x1="785" y1="591" x2="903" y2="591"/><line x1="785" y1="626" x2="903" y2="626"/><line x1="785" y1="662" x2="903" y2="662"/><line x1="785" y1="697" x2="903" y2="697"/><line x1="785" y1="733" x2="903" y2="733"/><line x1="785" y1="768" x2="903" y2="768"/><line x1="785" y1="804" x2="903" y2="804"/><line x1="785" y1="839" x2="903" y2="839"/><line x1="785" y1="875" x2="903" y2="875"/><rect x="922" y="563" width="168" height="347"/><rect x="993" y="537" width="26" height="26"/><line x1="950" y1="563" x2="950" y2="910"/><line x1="978" y1="563" x2="978" y2="910"/><line x1="1006" y1="563" x2="1006" y2="910"/><line x1="1034" y1="563" x2="1034" y2="910"/><line x1="1062" y1="563" x2="1062" y2="910"/><line x1="922" y1="598" x2="1090" y2="598"/><line x1="922" y1="632" x2="1090" y2="632"/><line x1="922" y1="667" x2="1090" y2="667"/><line x1="922" y1="702" x2="1090" y2="702"/><line x1="922" y1="736" x2="1090" y2="736"/><line x1="922" y1="771" x2="1090" y2="771"/><line x1="922" y1="806" x2="1090" y2="806"/><line x1="922" y1="841" x2="1090" y2="841"/><line x1="922" y1="875" x2="1090" y2="875"/><rect x="1112" y="417" width="179" height="493"/><line x1="1142" y1="417" x2="1142" y2="910"/><line x1="1172" y1="417" x2="1172" y2="910"/><line x1="1202" y1="417" x2="1202" y2="910"/><line x1="1231" y1="417" x2="1231" y2="910"/><line x1="1261" y1="417" x2="1261" y2="910"/><line x1="1112" y1="452" x2="1291" y2="452"/><line x1="1112" y1="487" x2="1291" y2="487"/><line x1="1112" y1="523" x2="1291" y2="523"/><line x1="1112" y1="558" x2="1291" y2="558"/><line x1="1112" y1="593" x2="1291" y2="593"/><line x1="1112" y1="628" x2="1291" y2="628"/><line x1="1112" y1="664" x2="1291" y2="664"/><line x1="1112" y1="699" x2="1291" y2="699"/><line x1="1112" y1="734" x2="1291" y2="734"/><line x1="1112" y1="769" x2="1291" y2="769"/><line x1="1112" y1="804" x2="1291" y2="804"/><line x1="1112" y1="840" x2="1291" y2="840"/><line x1="1112" y1="875" x2="1291" y2="875"/><rect x="1301" y="376" width="200" height="534"/><rect x="1394" y="364" width="14" height="12"/><line x1="1330" y1="376" x2="1330" y2="910"/><line x1="1358" y1="376" x2="1358" y2="910"/><line x1="1387" y1="376" x2="1387" y2="910"/><line x1="1415" y1="376" x2="1415" y2="910"/><line x1="1444" y1="376" x2="1444" y2="910"/><line x1="1472" y1="376" x2="1472" y2="910"/><line x1="1301" y1="412" x2="1501" y2="412"/><line x1="1301" y1="447" x2="1501" y2="447"/><line x1="1301" y1="483" x2="1501" y2="483"/><line x1="1301" y1="518" x2="1501" y2="518"/><line x1="1301" y1="554" x2="1501" y2="554"/><line x1="1301" y1="590" x2="1501" y2="590"/><line x1="1301" y1="625" x2="1501" y2="625"/><line x1="1301" y1="661" x2="1501" y2="661"/><line x1="1301" y1="696" x2="1501" y2="696"/><line x1="1301" y1="732" x2="1501" y2="732"/><line x1="1301" y1="768" x2="1501" y2="768"/><line x1="1301" y1="803" x2="1501" y2="803"/><line x1="1301" y1="839" x2="1501" y2="839"/><line x1="1301" y1="874" x2="1501" y2="874"/><rect x="1523" y="563" width="97" height="347"/><line x1="1555" y1="563" x2="1555" y2="910"/><line x1="1588" y1="563" x2="1588" y2="910"/><line x1="1523" y1="598" x2="1620" y2="598"/><line x1="1523" y1="632" x2="1620" y2="632"/><line x1="1523" y1="667" x2="1620" y2="667"/><line x1="1523" y1="702" x2="1620" y2="702"/><line x1="1523" y1="736" x2="1620" y2="736"/><line x1="1523" y1="771" x2="1620" y2="771"/><line x1="1523" y1="806" x2="1620" y2="806"/><line x1="1523" y1="841" x2="1620" y2="841"/><line x1="1523" y1="875" x2="1620" y2="875"/><rect x="1636" y="306" width="149" height="604"/><line x1="1666" y1="306" x2="1666" y2="910"/><line x1="1696" y1="306" x2="1696" y2="910"/><line x1="1725" y1="306" x2="1725" y2="910"/><line x1="1755" y1="306" x2="1755" y2="910"/><line x1="1636" y1="342" x2="1785" y2="342"/><line x1="1636" y1="377" x2="1785" y2="377"/><line x1="1636" y1="413" x2="1785" y2="413"/><line x1="1636" y1="448" x2="1785" y2="448"/><line x1="1636" y1="484" x2="1785" y2="484"/><line x1="1636" y1="519" x2="1785" y2="519"/><line x1="1636" y1="555" x2="1785" y2="555"/><line x1="1636" y1="590" x2="1785" y2="590"/><line x1="1636" y1="626" x2="1785" y2="626"/><line x1="1636" y1="661" x2="1785" y2="661"/><line x1="1636" y1="697" x2="1785" y2="697"/><line x1="1636" y1="732" x2="1785" y2="732"/><line x1="1636" y1="768" x2="1785" y2="768"/><line x1="1636" y1="803" x2="1785" y2="803"/><line x1="1636" y1="839" x2="1785" y2="839"/><line x1="1636" y1="874" x2="1785" y2="874"/></g>
</svg>